<?xml version="1.0" encoding="UTF-8"?>
<svg id="Layer_1" xmlns="http://www.w3.org/2000/svg" version="1.1" viewBox="0 0 1011.72 420.44">
  <!-- Generator: Adobe Illustrator 30.6.0, SVG Export Plug-In . SVG Version: 2.1.4 Build 109)  -->
  <path d="M0,307.78h37.84c5.36,45.74,46.87,78.5,99.39,78.5,60.71,0,103.91-42.92,103.91-102.78s-43.2-103.35-102.22-103.35c-41.23,0-76.8,19.48-95.72,51.96H6.21L29.37,6.49h225.89v34.45H61.27l-15.25,150.5h1.13c19.77-27.67,56.76-44.9,97.98-44.9,77.65,0,134.69,57.6,134.69,136.1s-59.86,137.79-143.16,137.79c-74.54,0-131.58-46.87-136.66-112.66Z"/>
  <path d="M505.44,420.44c-110.4,0-182.97-84.14-182.97-212.62S394.18,0,505.44,0c85.56,0,151.35,51.11,166.59,129.04h-40.1c-16.66-58.17-64.38-93.18-126.5-93.18-88.38,0-143.44,65.79-143.44,171.96s56.19,176.76,143.44,176.76c78.78,0,130.74-50.26,130.74-127.06v-14.4h-126.5v-33.88h164.9v39.25c0,107.58-63.25,171.96-169.14,171.96Z"/>
  <path d="M888.04,404.91h-35.01v-134.97h-123.68v-35.01h123.68V103.63h35.01v131.3h123.68v35.01h-123.68v134.97Z"/>
</svg>