<?xml version="1.0" encoding="UTF-8"?>
<svg width="1200pt" height="1200pt" version="1.1" viewBox="0 0 1200 1200" xmlns="http://www.w3.org/2000/svg">
 <path d="m936.59 1032.6-93.934-555.23c114.41-106.77 207.21-193.66 219.21-205.78 30.273-30.57 68.68-138.6 36.793-170.49-31.887-31.887-140.07 6.3711-170.49 36.793-18.184 18.184-103.1 108.75-206.13 219.16l-554.88-93.871c-9.8047-1.6602-19.809 1.5312-26.84 8.5664l-36.809 36.809c-2.0664 2.0664-3.0312 4.9883-2.5977 7.875 0.42969 2.8867 2.207 5.4023 4.7852 6.7734l433.17 230.46c-83.98 90.254-162.4 174.65-212.45 228.54l-190.57 10.852h0.003906c-7.5312 0.42969-14.637 3.6133-19.969 8.9453l-24.598 24.598c-1.582 1.4922-2.2773 3.6953-1.8359 5.8242 0.44141 2.1328 1.957 3.8789 4.0039 4.6172l192.46 65.512v-0.003906c5.3281 1.8164 9.5156 6 11.34 11.324l65.895 192.88c0.73828 2.043 2.4883 3.5586 4.6133 4 2.1289 0.4375 4.3359-0.25781 5.8242-1.8398l24.586-24.586c5.3438-5.3438 8.5273-12.469 8.9492-20.012l10.617-191.2c53.887-50.117 138.13-128.5 228.25-212.43l230.57 433.39c1.3711 2.5781 3.8867 4.3516 6.7734 4.7852 2.8906 0.42969 5.8125-0.53516 7.875-2.6016l36.809-36.809h0.003906c7.0312-7.0312 10.223-17.035 8.5664-26.84z"/>
</svg>
