<?xml version="1.0" encoding="UTF-8"?>
<svg width="1200pt" height="1200pt" version="1.1" viewBox="0 0 1200 1200" xmlns="http://www.w3.org/2000/svg">
 <path d="m177 1057.8h539.44c4.4531 5.2969 9.0938 10.5 14.062 15.469 60.797 60.656 149.29 84.281 232.22 62.016 82.922-22.266 147.71-87.047 169.97-169.97 22.262-82.922-1.3594-171.47-61.969-232.26-3.1875-3.1875-6.6562-6.0469-9.9844-9.0469v-451.36c-0.09375-65.25-52.969-118.12-118.22-118.22h-67.5v-34.031c-0.046875-35.391-28.734-64.078-64.172-64.125h-40.875c-35.391 0.046875-64.125 28.734-64.125 64.125v34.031h-292.13v-34.031c-0.046875-35.391-28.734-64.078-64.172-64.125h-40.688c-35.438 0.046875-64.125 28.734-64.172 64.125v34.031h-67.688c-65.25 0.09375-118.12 52.969-118.17 118.22v666.98c0.046875 65.25 52.922 118.12 118.17 118.17zm853.97-285v0.046875c40.594 40.5 60.047 97.641 52.641 154.55-7.4531 56.906-40.922 107.11-90.609 135.84-49.688 28.734-109.88 32.719-162.94 10.781-53.016-21.938-92.812-67.266-107.72-122.72-14.859-55.406-3.0938-114.61 31.828-160.13 34.922-45.562 89.016-72.234 146.44-72.234 48.844 0 95.719 19.359 130.36 53.906zm-915.89-500.16c0.046875-34.219 27.75-61.922 61.922-61.969h95.812c15.562 0 28.125-12.562 28.125-28.125v-62.156c0-4.3594 3.5625-7.875 7.9219-7.875h40.734-0.046875c4.3594 0 7.9219 3.5156 7.9219 7.875v62.156c0 15.562 12.609 28.125 28.125 28.125h348.37c15.516 0 28.125-12.562 28.125-28.125v-62.156c0.046875-4.3125 3.5625-7.8281 7.875-7.875h40.875c4.3594 0.046874 7.875 3.5625 7.9219 7.875v62.156c0 15.562 12.609 28.125 28.125 28.125h95.625c34.219 0.046874 61.922 27.75 61.969 61.969v65.906l-889.4-0.046876zm0 122.16 889.4-0.046875v291.71c-59.578-28.688-128.34-31.5-190.08-7.875-61.734 23.625-111.05 71.672-136.22 132.74-25.219 61.125-24.141 129.94 3 190.22h-504.19c-34.172-0.046875-61.875-27.75-61.922-61.922zm790.64 409.64v101.25h101.25c15.562 0 28.125 12.562 28.125 28.125 0 15.516-12.562 28.125-28.125 28.125h-129.37c-15.516 0-28.125-12.609-28.125-28.125v-129.37c0-15.562 12.609-28.125 28.125-28.125s28.125 12.562 28.125 28.125z"/>
</svg>
