<?xml version="1.0" encoding="UTF-8"?>
<svg width="1200pt" height="1200pt" version="1.1" viewBox="0 0 1200 1200" xmlns="http://www.w3.org/2000/svg">
 <path d="m1078.8 454.8c-42 0-75.602 33.602-75.602 75.602v85.199c0 222-181.2 403.2-403.2 403.2s-403.2-181.2-403.2-403.2v-25.199c0-222 181.2-403.2 403.2-403.2h142.8c42 0 75.602-33.602 75.602-75.602-0.003906-42-34.801-75.602-76.801-75.602h-141.6c-306 0-554.4 248.4-554.4 554.4v25.199c0 306 248.4 554.4 555.6 554.4 306 0 554.4-248.4 554.4-554.4v-85.199c-1.2031-42-34.801-75.598-76.801-75.598z"/>
 <path d="m464.4 477.6c-26.398-32.398-74.398-37.199-106.8-12-32.398 26.398-38.398 74.398-12 106.8l168 210c14.398 18 36 28.801 58.801 28.801 22.801 0 44.398-10.801 58.801-28.801l505.2-628.8c26.398-32.398 20.398-80.398-12-106.8-32.398-26.398-80.398-21.602-106.8 12l-444 555.6z"/>
</svg>
