<?xml version="1.0" encoding="UTF-8"?>
<svg width="1200pt" height="1200pt" version="1.1" viewBox="200 314 800 573" xmlns="http://www.w3.org/2000/svg">
 <path d="m350.62 395.96c-8.9141 0-17.094 2.7461-24.09 7.3203l255.29 241.83c11.184 10.602 25.676 10.602 36.84 0l254.82-241.83c-6.9961-4.5781-15.176-7.3203-24.09-7.3203h-498.77zm-42.508 31.172c-1.7266 4.9922-2.832 10.199-2.832 15.824v314.09c0 9.543 2.6562 18.34 7.3203 25.742l180.42-180.19-184.91-175.47zm583.79 0-184.44 175.23 179.95 180.43c4.6641-7.4023 7.3203-16.195 7.3203-25.742v-314.09c0-5.625-1.1055-10.832-2.832-15.824zm-206.41 196.25-46.051 43.688c-21.93 20.82-56.473 20.793-78.406 0l-46.051-43.453-178.54 178.07c4.4648 1.5195 9.2031 2.3633 14.168 2.3633h498.77c4.9648 0 9.7031-0.84375 14.168-2.3633z"/>
</svg>
