<?xml version="1.0" encoding="UTF-8"?>
<svg width="1200pt" height="1200pt" version="1.1" viewBox="0 0 1200 1200" xmlns="http://www.w3.org/2000/svg">
 <path d="m633.61 685.22c-6 0-358.78 2.3906-480 262.78-7.2188 16.781-4.7812 36 7.2188 50.391l82.781 92.391c15.609 18 42 20.391 61.219 6l163.18-121.18c7.2188-4.7812 12-12 14.391-20.391l21.609-86.391c1.2188-6 7.2188-10.781 13.219-12 1.2188 0 1.2188 0 2.3906-1.2188 1.2188 0 110.39-42 230.39 2.3906 4.7812 2.3906 8.3906 6 10.781 10.781l21.609 86.391c2.3906 8.3906 7.2188 15.609 14.391 20.391l163.22 121.22c8.3906 6 18 9.6094 27.609 9.6094 12 0 25.219-4.7812 33.609-15.609l82.781-92.391c12-13.219 15.609-33.609 7.2188-50.391-121.22-260.39-471.61-262.78-477.61-262.78z"/>
 <path d="m297.61 284.39c-9.6094 9.6094-15.609 22.781-15.609 37.219 0 14.391 4.7812 27.609 15.609 37.219l2.3906 2.3906 297.61 268.78c10.781 9.6094 22.781 14.391 36 14.391s27.609-4.7812 37.219-15.609l174-172.78 81.609 81.609c3.6094 3.6094 8.3906 4.7812 13.219 2.3906 4.7812-1.2188 7.2188-6 8.3906-10.781l21.609-266.39c0-3.6094-1.2188-7.2188-3.6094-9.6094-2.3906-2.3906-6-3.6094-9.6094-3.6094l-266.39 21.609c-4.7812 0-8.3906 3.6094-10.781 8.3906s0 9.6094 2.3906 13.219l90 90-120 118.78c-10.781 10.781-28.781 10.781-40.781 1.2188l-240-217.22c-21.656-20.391-54.094-20.391-73.266-1.2188z"/>
</svg>
