<?xml version="1.0" encoding="UTF-8"?>
<svg width="1200pt" height="1200pt" version="1.1" viewBox="0 0 1200 1200" xmlns="http://www.w3.org/2000/svg">
 <path d="m1158 969.61-483.61-826.82c-33.609-56.391-115.22-56.391-148.78 0l-483.61 826.82c-33.609 57.609 8.3906 129.61 74.391 129.61h967.22c67.172 0 108-72 74.391-129.61zm-558-603.61c43.219 0 76.781 36 75.609 78-1.2188 37.219-3.6094 74.391-7.2188 114-4.7812 64.781-12 126-20.391 183.61-3.6094 24-24 42-48 42s-44.391-18-48-42c-8.3906-57.609-15.609-118.78-20.391-183.61-3.6094-39.609-4.8281-78-7.2188-114-1.1719-43.219 32.391-78 75.609-78zm0 614.39c-43.219 0-76.781-34.781-76.781-76.781 0-43.219 34.781-76.781 76.781-76.781s76.781 34.781 76.781 76.781-33.562 76.781-76.781 76.781z"/>
</svg>
