<?xml version="1.0" encoding="UTF-8"?>
<svg xmlns="http://www.w3.org/2000/svg" viewBox="0 0 1167.18 825.01">
  <defs>
    <style>
      .wf { fill-rule: evenodd; }
      .we { fill-rule: evenodd; opacity: 0.35; }
    </style>
  </defs>
  <path class="we" d="M583.6,0C364.84,0,154.7,86.72,0,241.4l106.03,106.08c126.61-126.61,298.5-197.48,477.56-197.48s350.9,70.88,477.56,197.48l106.03-106.08C1012.49,86.71,802.36,0,583.58,0h.02Z"/>
  <path class="we" d="M583.6,300.14c-139.22,0-272.76,55.22-371.21,153.66l106.08,106.08c70.36-70.36,165.66-110.02,265.13-110.02s194.81,39.66,265.13,110.02l106.08-106.03c-98.44-98.44-231.98-153.66-371.21-153.66v-.05Z"/>
  <path class="wf" d="M583.6,600c-59.62,0-116.91,23.77-159.1,65.91l159.1,159.1c53.02-53.02,106.03-106.03,159.1-159.05-42.19-42.19-99.47-65.95-159.1-65.95h0Z"/>
</svg>
